<?xml version="1.0" encoding="UTF-8" standalone="no"?>
<!-- Created with Inkscape (http://www.inkscape.org/) -->

<svg
   width="210mm"
   height="297mm"
   viewBox="0 0 210 297"
   version="1.1"
   id="svg1"
   xmlns:inkscape="http://www.inkscape.org/namespaces/inkscape"
   xmlns:sodipodi="http://sodipodi.sourceforge.net/DTD/sodipodi-0.dtd"
   xmlns="http://www.w3.org/2000/svg"
   xmlns:svg="http://www.w3.org/2000/svg">
  <sodipodi:namedview
     id="namedview1"
     pagecolor="#ffffff"
     bordercolor="#000000"
     borderopacity="0.25"
     inkscape:showpageshadow="2"
     inkscape:pageopacity="0.0"
     inkscape:pagecheckerboard="0"
     inkscape:deskcolor="#d1d1d1"
     inkscape:document-units="mm" />
  <defs
     id="defs1" />
  <g
     inkscape:label="Camada 1"
     inkscape:groupmode="layer"
     id="layer1">
    <g
       id="g2"
       style="fill:#000000;fill-opacity:1"
       transform="matrix(0.86946208,0,0,0.86946208,-309.12466,-185.35389)">
      <path
         style="fill:#000000;fill-opacity:1;stroke:none"
         d="m 436.71654,364.58366 46.9391,-26.01705 1.40926,-50.08283 c 0,0 11.18157,-16.99108 30.08459,-6.07741 16.84827,9.72735 6.8813,29.81797 6.8813,29.81797 0,0 -11.92828,14.86969 -18.9869,21.21214 -18.66338,16.7698 -57.51832,32.61676 -84.20239,52.01755 -33.27079,24.18969 -42.48669,39.06328 -42.48669,39.06328 0,0 -14.1535,14.07922 -9.79178,39.74216 3.98051,23.42005 28.49522,43.65683 28.49522,43.65683 0,0 17.89739,13.2162 15.06689,8.22709 -2.70267,-4.76379 -5.92991,-9.65839 -5.92991,-9.65839 0,0 -14.88137,-24.38152 -10.31086,-41.43891 4.57507,-17.07439 28.52279,-35.96182 28.52279,-35.96182 l 50.95006,-34.68941 c 0,0 59.74612,-33.05498 75.86985,-61.28476 11.49724,-20.12961 5.86706,-39.74812 5.86706,-39.74812 0,0 -3.37048,-21.19141 -26.99627,-32.70403 C 501.18938,247.5457 477.04297,259.323 477.04297,259.323 l -27.10109,19.94641 z"
         id="path1-5"
         sodipodi:nodetypes="cccscsscscscsccscsccc" />
      <path
         style="fill:#000000;fill-opacity:1;stroke:none"
         d="m 479.837,399.22167 -55.49712,37.25359 -9.04511,54.42396 c 0,0 27.62034,-11.39867 42.16494,-11.23666 14.52484,0.16178 41.84727,12.15651 41.84727,12.15651 0,0 30.39876,7.52577 45.53422,5.39763 19.1097,-2.68694 23.45391,-9.84354 23.45391,-9.84354 0,0 8.19263,-9.06633 10.98204,-14.42826 3.9085,-7.51309 7.72141,-24.20509 7.72141,-24.20509 0,0 1.92359,-8.51721 -1.05994,-10.15429 -1.58494,-0.86968 -8.13848,6.78154 -8.13848,6.78154 0,0 -19.5538,13.14427 -30.82746,15.11173 -9.8723,1.7229 -29.88209,-3.3071 -29.88209,-3.3071 l -38.78666,-14.87077 z"
         id="path2-7"
         sodipodi:nodetypes="cccacscacscaccc" />
    </g>
  </g>
</svg>
